HIERARCHY
ROOT hip
{
  OFFSET 0 90.174 2.4664
  CHANNELS 6 Xposition Yposition Zposition Zrotation Xrotation Yrotation
  JOINT abdomen
  {
    OFFSET 0 -1.186 -1.5018
    CHANNELS 6 Xposition Yposition Zposition Zrotation Xrotation Yrotation
    JOINT abdomen2
    {
      OFFSET 0 9.964 0.2134
      CHANNELS 6 Xposition Yposition Zposition Zrotation Xrotation Yrotation
      JOINT chest
      {
        OFFSET 0 13.134 -3.2573
        CHANNELS 6 Xposition Yposition Zposition Zrotation Xrotation Yrotation
        JOINT neck
        {
          OFFSET 0 20.686 -1.6905
          CHANNELS 6 Xposition Yposition Zposition Zrotation Xrotation Yrotation
          JOINT head
          {
            OFFSET 0 7.238 -0.1237
            CHANNELS 6 Xposition Yposition Zposition Zrotation Xrotation Yrotation
            End Site
            {
              OFFSET 0 0 0
            }
          }
        }
        JOINT lCollar
        {
          OFFSET 1.7069 20.075 5.0056
          CHANNELS 6 Xposition Yposition Zposition Zrotation Xrotation Yrotation
          JOINT lShldr
          {
            OFFSET 13.6458 -0.047 -4.849
            CHANNELS 6 Xposition Yposition Zposition Zrotation Xrotation Yrotation
            JOINT lForeArm
            {
              OFFSET 28.3255 -0.9759 2.2888
              CHANNELS 6 Xposition Yposition Zposition Zrotation Xrotation Yrotation
              JOINT lHand
              {
                OFFSET 22.1583 -0.53 10.8316
                CHANNELS 6 Xposition Yposition Zposition Zrotation Xrotation Yrotation
                JOINT lThumb1
                {
                  OFFSET 0.786 0.112 2.5817
                  CHANNELS 6 Xposition Yposition Zposition Zrotation Xrotation Yrotation
                  JOINT lThumb2
                  {
                    OFFSET 0.3601 -0.878 4.2331
                    CHANNELS 6 Xposition Yposition Zposition Zrotation Xrotation Yrotation
                    JOINT lThumb2_End
                    {
                      OFFSET 1.8127 -1.216 2.2227
                      CHANNELS 6 Xposition Yposition Zposition Zrotation Xrotation Yrotation
                      End Site
                      {
                        OFFSET 0.0181 -0.0122 0.0222
                      }
                    }
                  }
                }
                JOINT lCarpal1
                {
                  OFFSET 0.9571 1.114 1.7695
                  CHANNELS 6 Xposition Yposition Zposition Zrotation Xrotation Yrotation
                  JOINT lIndex1
                  {
                    OFFSET 4.1246 0.487 4.1451
                    CHANNELS 6 Xposition Yposition Zposition Zrotation Xrotation Yrotation
                    JOINT lIndex2
                    {
                      OFFSET 3.4052 -1.454 2.7682
                      CHANNELS 6 Xposition Yposition Zposition Zrotation Xrotation Yrotation
                      JOINT lIndex2_End
                      {
                        OFFSET 1.4531 -1.795 1.2713
                        CHANNELS 6 Xposition Yposition Zposition Zrotation Xrotation Yrotation
                        End Site
                        {
                          OFFSET 0.0145 -0.0179 0.0127
                        }
                      }
                    }
                  }
                  JOINT lMid1
                  {
                    OFFSET 5.6954 0.21 2.1184
                    CHANNELS 6 Xposition Yposition Zposition Zrotation Xrotation Yrotation
                    JOINT lMid2
                    {
                      OFFSET 3.9766 -1.54 2.3863
                      CHANNELS 6 Xposition Yposition Zposition Zrotation Xrotation Yrotation
                      JOINT lMid2_End
                      {
                        OFFSET 1.4042 -1.926 1.125
                        CHANNELS 6 Xposition Yposition Zposition Zrotation Xrotation Yrotation
                        End Site
                        {
                          OFFSET 0.014 -0.0193 0.0113
                        }
                      }
                    }
                  }
                }
                JOINT lCarpal2
                {
                  OFFSET 2.0956 0.66 -0.3894
                  CHANNELS 6 Xposition Yposition Zposition Zrotation Xrotation Yrotation
                  JOINT lRing1
                  {
                    OFFSET 5.0395 -0.09 2.4971
                    CHANNELS 6 Xposition Yposition Zposition Zrotation Xrotation Yrotation
                    JOINT lRing2
                    {
                      OFFSET 3.7921 -1.552 1.4806
                      CHANNELS 6 Xposition Yposition Zposition Zrotation Xrotation Yrotation
                      JOINT lRing2_End
                      {
                        OFFSET 1.4655 -1.808 0.9609
                        CHANNELS 6 Xposition Yposition Zposition Zrotation Xrotation Yrotation
                        End Site
                        {
                          OFFSET 0.0147 -0.0181 0.0096
                        }
                      }
                    }
                  }
                  JOINT lPinky1
                  {
                    OFFSET 4.9141 -1.269 0.3591
                    CHANNELS 6 Xposition Yposition Zposition Zrotation Xrotation Yrotation
                    JOINT lPinky2
                    {
                      OFFSET 3.1477 -1.685 0.8462
                      CHANNELS 6 Xposition Yposition Zposition Zrotation Xrotation Yrotation
                      JOINT lPinky2_End
                      {
                        OFFSET 0.8055 -1.585 0.7955
                        CHANNELS 6 Xposition Yposition Zposition Zrotation Xrotation Yrotation
                        End Site
                        {
                          OFFSET 0.0081 -0.0158 0.008
                        }
                      }
                    }
                  }
                }
              }
            }
          }
        }
        JOINT rCollar
        {
          OFFSET -1.7069 20.075 5.0056
          CHANNELS 6 Xposition Yposition Zposition Zrotation Xrotation Yrotation
          JOINT rShldr
          {
            OFFSET -13.6458 -0.047 -4.849
            CHANNELS 6 Xposition Yposition Zposition Zrotation Xrotation Yrotation
            JOINT rForeArm
            {
              OFFSET -28.3255 -0.9759 2.2888
              CHANNELS 6 Xposition Yposition Zposition Zrotation Xrotation Yrotation
              JOINT rHand
              {
                OFFSET -22.1583 -0.53 10.8316
                CHANNELS 6 Xposition Yposition Zposition Zrotation Xrotation Yrotation
                JOINT rThumb1
                {
                  OFFSET -0.786 0.112 2.5817
                  CHANNELS 6 Xposition Yposition Zposition Zrotation Xrotation Yrotation
                  JOINT rThumb2
                  {
                    OFFSET -0.3601 -0.878 4.2331
                    CHANNELS 6 Xposition Yposition Zposition Zrotation Xrotation Yrotation
                    JOINT rThumb2_End
                    {
                      OFFSET -1.8127 -1.216 2.2227
                      CHANNELS 6 Xposition Yposition Zposition Zrotation Xrotation Yrotation
                      End Site
                      {
                        OFFSET -0.0181 -0.0122 0.0222
                      }
                    }
                  }
                }
                JOINT rCarpal1
                {
                  OFFSET -0.9571 1.114 1.7695
                  CHANNELS 6 Xposition Yposition Zposition Zrotation Xrotation Yrotation
                  JOINT rIndex1
                  {
                    OFFSET -4.1246 0.487 4.1451
                    CHANNELS 6 Xposition Yposition Zposition Zrotation Xrotation Yrotation
                    JOINT rIndex2
                    {
                      OFFSET -3.4052 -1.454 2.7682
                      CHANNELS 6 Xposition Yposition Zposition Zrotation Xrotation Yrotation
                      JOINT rIndex2_End
                      {
                        OFFSET -1.4531 -1.795 1.2713
                        CHANNELS 6 Xposition Yposition Zposition Zrotation Xrotation Yrotation
                        End Site
                        {
                          OFFSET -0.0145 -0.018 0.0127
                        }
                      }
                    }
                  }
                  JOINT rMid1
                  {
                    OFFSET -5.6954 0.21 2.1184
                    CHANNELS 6 Xposition Yposition Zposition Zrotation Xrotation Yrotation
                    JOINT rMid2
                    {
                      OFFSET -3.9766 -1.54 2.3863
                      CHANNELS 6 Xposition Yposition Zposition Zrotation Xrotation Yrotation
                      JOINT rMid2_End
                      {
                        OFFSET -1.4042 -1.926 1.125
                        CHANNELS 6 Xposition Yposition Zposition Zrotation Xrotation Yrotation
                        End Site
                        {
                          OFFSET -0.014 -0.0193 0.0113
                        }
                      }
                    }
                  }
                }
                JOINT rCarpal2
                {
                  OFFSET -2.0956 0.66 -0.3894
                  CHANNELS 6 Xposition Yposition Zposition Zrotation Xrotation Yrotation
                  JOINT rRing1
                  {
                    OFFSET -5.0395 -0.09 2.4971
                    CHANNELS 6 Xposition Yposition Zposition Zrotation Xrotation Yrotation
                    JOINT rRing2
                    {
                      OFFSET -3.7921 -1.552 1.4806
                      CHANNELS 6 Xposition Yposition Zposition Zrotation Xrotation Yrotation
                      JOINT rRing2_End
                      {
                        OFFSET -1.4655 -1.808 0.9609
                        CHANNELS 6 Xposition Yposition Zposition Zrotation Xrotation Yrotation
                        End Site
                        {
                          OFFSET -0.0147 -0.0181 0.0096
                        }
                      }
                    }
                  }
                  JOINT rPinky1
                  {
                    OFFSET -4.9141 -1.269 0.3592
                    CHANNELS 6 Xposition Yposition Zposition Zrotation Xrotation Yrotation
                    JOINT rPinky2
                    {
                      OFFSET -3.1477 -1.685 0.8462
                      CHANNELS 6 Xposition Yposition Zposition Zrotation Xrotation Yrotation
                      JOINT rPinky2_End
                      {
                        OFFSET -0.8055 -1.585 0.7955
                        CHANNELS 6 Xposition Yposition Zposition Zrotation Xrotation Yrotation
                        End Site
                        {
                          OFFSET -0.0081 -0.0158 0.008
                        }
                      }
                    }
                  }
                }
              }
            }
          }
        }
      }
    }
  }
  JOINT lThigh
  {
    OFFSET 8.367 -8.2066 0.5982
    CHANNELS 6 Xposition Yposition Zposition Zrotation Xrotation Yrotation
    JOINT lShin
    {
      OFFSET 2.1923 -43.463 -0.4932
      CHANNELS 6 Xposition Yposition Zposition Zrotation Xrotation Yrotation
      JOINT lFoot
      {
        OFFSET 0.7333 -45.8593 -2.6451
        CHANNELS 6 Xposition Yposition Zposition Zrotation Xrotation Yrotation
        End Site
        {
          OFFSET 2.6618 -4.2699 12.3931
        }
      }
    }
  }
  JOINT rThigh
  {
    OFFSET -8.367 -8.2066 0.5982
    CHANNELS 6 Xposition Yposition Zposition Zrotation Xrotation Yrotation
    JOINT rShin
    {
      OFFSET -2.1923 -43.463 -0.4931
      CHANNELS 6 Xposition Yposition Zposition Zrotation Xrotation Yrotation
      JOINT rFoot
      {
        OFFSET -0.7333 -45.8593 -2.6451
        CHANNELS 6 Xposition Yposition Zposition Zrotation Xrotation Yrotation
        End Site
        {
          OFFSET -2.6618 -4.2699 12.3931
        }
      }
    }
  }
}
MOTION
Frames:	4
Frame Time:	0.0333333
13.1047 27.8518 15.1098 -2.99133 0.0123663 -157.066 8.88178e-016 -1.186 -1.5018 -2.16 10.5159 1.75326 0 9.964 0.2134 -4.77596 20.9503 4.0201 -1.77636e-015 13.134 -3.2573 -4.77597 20.9503 4.02011 -2.66454e-015 20.686 -1.6905 6.50533 -0.925 -0.0630586 4.44089e-016 7.238 -0.1237 19.4663 14.3246 0.883687 1.7069 20.075 5.0056 -52.3292 -28.9956 -20.5716 13.6458 -0.047 -4.849 5.06879 7.46337 7.37307 28.3255 -0.9759 2.2888 -0.892394 0.176544 15.2239 22.1583 -0.53 10.8316 -13.6961 6.9477 -5.97997 0.786 0.112 2.5817 -3.94007e-007 -6.20523e-007 -4.25712e-007 0.3601 -0.878 4.2331 3.94007e-007 6.20523e-007 4.25712e-007 1.8127 -1.216 2.2227 3.94007e-007 6.20523e-007 4.25712e-007 0.9571 1.114 1.7695 -1.59028e-015 -1.59028e-015 3.18055e-015 4.1246 0.487 4.1451 -3.94007e-007 -6.20523e-007 -4.25712e-007 3.4052 -1.454 2.7682 3.94007e-007 6.20523e-007 4.25712e-007 1.4531 -1.795 1.2713 3.94007e-007 6.20523e-007 4.25712e-007 5.6954 0.21 2.1184 -3.94007e-007 -6.20523e-007 -4.25712e-007 3.9766 -1.54 2.3863 3.94007e-007 6.20523e-007 4.25712e-007 1.4042 -1.926 1.125 3.94007e-007 6.20523e-007 4.25712e-007 2.0956 0.66 -0.3894 -1.59028e-015 -1.59028e-015 3.18055e-015 5.0395 -0.09 2.4971 -3.94007e-007 -6.20523e-007 -4.25712e-007 3.7921 -1.552 1.4806 3.94007e-007 6.20523e-007 4.25712e-007 1.4655 -1.808 0.9609 3.94007e-007 6.20523e-007 4.25712e-007 4.9141 -1.269 0.3591 -3.94007e-007 -6.20523e-007 -4.25712e-007 3.1477 -1.685 0.8462 3.94007e-007 6.20523e-007 4.25712e-007 0.8055 -1.585 0.7955 3.94007e-007 6.20523e-007 4.25712e-007 -1.7069 20.075 5.0056 26.4313 14.369 17.1925 -13.6458 -0.047 -4.849 -24.6805 7.50759 41.5369 -28.3255 -0.9759 2.2888 -7.25148 -3.65186 29.3639 -22.1583 -0.53 10.8316 -47.9835 -18.4889 -1.10657 -0.786 0.112 2.5817 1.03262e-006 -1.69069e-006 3.02229e-006 -0.3601 -0.878 4.2331 5.5386e-007 3.01067e-007 -1.12316e-007 -1.8127 -1.216 2.2227 -7.3848e-007 -4.01422e-007 1.49755e-007 -0.9571 1.114 1.7695 -1.59028e-015 3.18055e-015 6.36111e-015 -4.1246 0.487 4.1451 1.03262e-006 -1.69069e-006 3.02229e-006 -3.4052 -1.454 2.7682 5.5386e-007 3.01067e-007 -1.12316e-007 -1.4531 -1.795 1.2713 -7.3848e-007 -4.01422e-007 1.49755e-007 -5.6954 0.21 2.1184 1.03262e-006 -1.69069e-006 3.02229e-006 -3.9766 -1.54 2.3863 5.5386e-007 3.01067e-007 -1.12316e-007 -1.4042 -1.926 1.125 -7.3848e-007 -4.01422e-007 1.49755e-007 -2.0956 0.66 -0.3894 -1.59028e-015 3.18055e-015 6.36111e-015 -5.0395 -0.09 2.4971 1.03262e-006 -1.69069e-006 3.02229e-006 -3.7921 -1.552 1.4806 5.5386e-007 3.01067e-007 -1.12316e-007 -1.4655 -1.808 0.9609 -7.3848e-007 -4.01422e-007 1.49755e-007 -4.9141 -1.269 0.3592 1.03262e-006 -1.69069e-006 3.02229e-006 -3.1477 -1.685 0.8462 5.5386e-007 3.01067e-007 -1.12316e-007 -0.8055 -1.585 0.7955 -7.3848e-007 -4.01422e-007 1.49755e-007 8.367 -8.2066 0.5982 61.7572 -37.899 97.9188 2.1923 -43.463 -0.4932 144.751 15.8406 179.387 0.7333 -45.8593 -2.6451 24.2945 53.0318 -19.5121 -8.367 -8.2066 0.5982 -61.808 -37.9708 -97.9522 -2.1923 -43.463 -0.4931 -144.443 15.9422 -179.368 -0.7333 -45.8593 -2.6451 -23.8237 53.1725 19.4024 
13.1658 27.8744 15.3183 -2.99133 0.0123663 -157.066 0 -1.186 -1.5018 -2.16001 10.5158 1.75324 0 9.964 0.2134 -4.77596 20.9503 4.0201 0 13.134 -3.2573 -4.77597 20.9504 4.02013 8.88178e-016 20.686 -1.6905 6.47799 -1.08748 -0.0536053 1.11022e-016 7.238 -0.1237 19.3793 14.1291 0.914044 1.7069 20.075 5.0056 -51.8894 -28.8004 -20.418 13.6458 -0.047 -4.849 4.54463 7.35201 7.2091 28.3255 -0.9759 2.2888 -0.521443 0.12974 14.8913 22.1583 -0.53 10.8316 -13.6962 6.94772 -5.97995 0.786 0.112 2.5817 1.52423e-006 -1.04981e-006 -1.51992e-006 0.3601 -0.878 4.2331 2.70473e-006 5.23232e-007 2.17071e-006 1.8127 -1.216 2.2227 3.89834e-007 6.23064e-007 4.25734e-007 0.9571 1.114 1.7695 1.59028e-015 4.77083e-015 9.54166e-015 4.1246 0.487 4.1451 1.52423e-006 -1.04981e-006 -1.51992e-006 3.4052 -1.454 2.7682 2.70473e-006 5.23232e-007 2.17071e-006 1.4531 -1.795 1.2713 3.89834e-007 6.23064e-007 4.25734e-007 5.6954 0.21 2.1184 1.52423e-006 -1.04981e-006 -1.51992e-006 3.9766 -1.54 2.3863 2.70473e-006 5.23232e-007 2.17071e-006 1.4042 -1.926 1.125 3.89834e-007 6.23064e-007 4.25734e-007 2.0956 0.66 -0.3894 1.59028e-015 4.77083e-015 9.54166e-015 5.0395 -0.09 2.4971 1.52423e-006 -1.04981e-006 -1.51992e-006 3.7921 -1.552 1.4806 2.70473e-006 5.23232e-007 2.17071e-006 1.4655 -1.808 0.9609 3.89834e-007 6.23064e-007 4.25734e-007 4.9141 -1.269 0.3591 1.52423e-006 -1.04981e-006 -1.51992e-006 3.1477 -1.685 0.8462 2.70473e-006 5.23232e-007 2.17071e-006 0.8055 -1.585 0.7955 3.89834e-007 6.23064e-007 4.25734e-007 -1.7069 20.075 5.0056 26.3814 14.1512 17.3261 -13.6458 -0.047 -4.849 -23.9686 7.65069 41.3952 -28.3255 -0.9759 2.2888 -7.40424 -3.70635 29.1048 -22.1583 -0.53 10.8316 -47.7535 -18.389 -1.13239 -0.786 0.112 2.5817 7.36006e-007 4.05979e-007 -1.49663e-007 -0.3601 -0.878 4.2331 1.84002e-007 1.01495e-007 -3.74159e-008 -1.8127 -1.216 2.2227 7.36006e-007 4.05979e-007 -1.49663e-007 -0.9571 1.114 1.7695 -3.18055e-015 -1.59028e-015 6.36111e-015 -4.1246 0.487 4.1451 7.36006e-007 4.05979e-007 -1.49663e-007 -3.4052 -1.454 2.7682 1.84002e-007 1.01495e-007 -3.74159e-008 -1.4531 -1.795 1.2713 7.36006e-007 4.05979e-007 -1.49663e-007 -5.6954 0.21 2.1184 7.36006e-007 4.05979e-007 -1.49663e-007 -3.9766 -1.54 2.3863 1.84002e-007 1.01495e-007 -3.74159e-008 -1.4042 -1.926 1.125 7.36006e-007 4.05979e-007 -1.49663e-007 -2.0956 0.66 -0.3894 -3.18055e-015 -1.59028e-015 6.36111e-015 -5.0395 -0.09 2.4971 7.36006e-007 4.05979e-007 -1.49663e-007 -3.7921 -1.552 1.4806 1.84002e-007 1.01495e-007 -3.74159e-008 -1.4655 -1.808 0.9609 7.36006e-007 4.05979e-007 -1.49663e-007 -4.9141 -1.269 0.3592 7.36006e-007 4.05979e-007 -1.49663e-007 -3.1477 -1.685 0.8462 1.84002e-007 1.01495e-007 -3.74159e-008 -0.8055 -1.585 0.7955 7.36006e-007 4.05979e-007 -1.49663e-007 8.367 -8.2066 0.5982 61.4499 -38.3139 97.7422 2.1923 -43.463 -0.4932 144.835 15.8541 179.451 0.7333 -45.8593 -2.6451 23.8099 52.9283 -19.2885 -8.367 -8.2066 0.5982 -61.501 -38.3847 -97.7717 -2.1923 -43.463 -0.4931 -144.528 15.9561 -179.43 -0.7333 -45.8593 -2.6451 -23.3399 53.0664 19.1797 
13.227 27.897 15.527 -2.99133 0.0123663 -157.066 -2.66454e-015 -1.186 -1.5018 -2.16001 10.5158 1.75324 8.88178e-016 9.964 0.2134 -4.77596 20.9504 4.0201 8.88178e-016 13.134 -3.2573 -4.77597 20.9503 4.02012 8.88178e-016 20.686 -1.6905 6.4506 -1.25014 -0.0442006 5.55112e-017 7.238 -0.1237 19.2925 13.9333 0.944078 1.7069 20.075 5.0056 -51.4505 -28.6039 -20.2662 13.6458 -0.047 -4.849 4.0193 7.24193 7.04386 28.3255 -0.9759 2.2888 -0.150279 0.0807362 14.5585 22.1583 -0.53 10.8316 -13.6961 6.9477 -5.97995 0.786 0.112 2.5817 1.59028e-015 1.59028e-015 6.36111e-015 0.3601 -0.878 4.2331 7.71297e-007 1.25115e-006 8.51512e-007 1.8127 -1.216 2.2227 1.59028e-015 -1.11319e-014 3.18055e-015 0.9571 1.114 1.7695 1.59028e-015 1.59028e-015 6.36111e-015 4.1246 0.487 4.1451 3.18055e-015 6.36111e-015 6.36111e-015 3.4052 -1.454 2.7682 7.71297e-007 1.25115e-006 8.51512e-007 1.4531 -1.795 1.2713 -4.77083e-015 -3.18055e-015 -3.18055e-015 5.6954 0.21 2.1184 3.18055e-015 6.36111e-015 6.36111e-015 3.9766 -1.54 2.3863 7.71297e-007 1.25115e-006 8.51512e-007 1.4042 -1.926 1.125 -4.77083e-015 -3.18055e-015 -3.18055e-015 2.0956 0.66 -0.3894 1.59028e-015 1.59028e-015 6.36111e-015 5.0395 -0.09 2.4971 3.18055e-015 6.36111e-015 6.36111e-015 3.7921 -1.552 1.4806 7.71297e-007 1.25115e-006 8.51512e-007 1.4655 -1.808 0.9609 -4.77083e-015 -3.18055e-015 -3.18055e-015 4.9141 -1.269 0.3591 3.18055e-015 6.36111e-015 6.36111e-015 3.1477 -1.685 0.8462 7.71297e-007 1.25115e-006 8.51512e-007 0.8055 -1.585 0.7955 -4.77083e-015 -3.18055e-015 -3.18055e-015 -1.7069 20.075 5.0056 26.332 13.9333 17.4595 -13.6458 -0.047 -4.849 -23.254 7.79243 41.2513 -28.3255 -0.9759 2.2888 -7.55735 -3.7602 28.8455 -22.1583 -0.53 10.8316 -47.5235 -18.2892 -1.15865 -0.786 0.112 2.5817 -4.54308e-007 1.67225e-006 -7.12333e-008 -0.3601 -0.878 4.2331 8.21055e-007 -1.46699e-006 -3.57019e-009 -1.8127 -1.216 2.2227 -8.7562e-008 1.87751e-006 -1.46037e-007 -0.9571 1.114 1.7695 3.53113e-031 3.18055e-015 -6.36111e-015 -4.1246 0.487 4.1451 -4.54308e-007 1.67225e-006 -7.12333e-008 -3.4052 -1.454 2.7682 8.21055e-007 -1.46699e-006 -3.57019e-009 -1.4531 -1.795 1.2713 -8.7562e-008 1.87751e-006 -1.46037e-007 -5.6954 0.21 2.1184 -4.54308e-007 1.67225e-006 -7.12333e-008 -3.9766 -1.54 2.3863 8.21055e-007 -1.46699e-006 -3.57019e-009 -1.4042 -1.926 1.125 -8.7562e-008 1.87751e-006 -1.46037e-007 -2.0956 0.66 -0.3894 3.53113e-031 3.18055e-015 -6.36111e-015 -5.0395 -0.09 2.4971 -4.54308e-007 1.67225e-006 -7.12333e-008 -3.7921 -1.552 1.4806 8.21055e-007 -1.46699e-006 -3.57019e-009 -1.4655 -1.808 0.9609 -8.7562e-008 1.87751e-006 -1.46037e-007 -4.9141 -1.269 0.3592 -4.54308e-007 1.67225e-006 -7.12333e-008 -3.1477 -1.685 0.8462 8.21055e-007 -1.46699e-006 -3.57019e-009 -0.8055 -1.585 0.7955 -8.7562e-008 1.87751e-006 -1.46037e-007 8.367 -8.2066 0.5982 61.139 -38.7286 97.5615 2.1923 -43.463 -0.4932 144.92 15.8678 179.514 0.7333 -45.8593 -2.6451 23.3263 52.8239 -19.0665 -8.367 -8.2066 0.5982 -61.1901 -38.7986 -97.587 -2.1923 -43.463 -0.4931 -144.612 15.9702 -179.491 -0.7333 -45.8593 -2.6451 -22.857 52.9593 18.9586 
13.2882 27.9195 15.7357 -2.99133 0.0123663 -157.066 0 -1.186 -1.5018 -2.16001 10.5158 1.75324 0 9.964 0.2134 -4.77596 20.9504 4.0201 0 13.134 -3.2573 -4.77597 20.9503 4.02012 0 20.686 -1.6905 6.42305 -1.41248 -0.0349107 -1.11022e-016 7.238 -0.1237 19.2058 13.7373 0.973816 1.7069 20.075 5.0056 -51.0127 -28.4062 -20.1163 13.6458 -0.047 -4.849 3.49282 7.13315 6.87736 28.3255 -0.9759 2.2888 0.221087 0.0294995 14.2256 22.1583 -0.53 10.8316 -13.6962 6.94771 -5.97994 0.786 0.112 2.5817 3.81454e-007 6.28057e-007 4.25779e-007 0.3601 -0.878 4.2331 0 0 -9.54166e-015 1.8127 -1.216 2.2227 -1.59028e-015 -1.59028e-015 -1.59028e-014 0.9571 1.114 1.7695 -1.76556e-031 1.59028e-015 6.36111e-015 4.1246 0.487 4.1451 3.81454e-007 6.28057e-007 4.25779e-007 3.4052 -1.454 2.7682 -1.59028e-015 -4.77083e-015 -9.54166e-015 1.4531 -1.795 1.2713 1.59028e-015 -3.18055e-015 -1.59028e-014 5.6954 0.21 2.1184 3.81454e-007 6.28057e-007 4.25779e-007 3.9766 -1.54 2.3863 -1.59028e-015 -4.77083e-015 -9.54166e-015 1.4042 -1.926 1.125 1.59028e-015 -3.18055e-015 -1.59028e-014 2.0956 0.66 -0.3894 -1.76556e-031 1.59028e-015 6.36111e-015 5.0395 -0.09 2.4971 3.81454e-007 6.28057e-007 4.25779e-007 3.7921 -1.552 1.4806 -1.59028e-015 -4.77083e-015 -9.54166e-015 1.4655 -1.808 0.9609 1.59028e-015 -3.18055e-015 -1.59028e-014 4.9141 -1.269 0.3591 3.81454e-007 6.28057e-007 4.25779e-007 3.1477 -1.685 0.8462 -1.59028e-015 -4.77083e-015 -9.54166e-015 0.8055 -1.585 0.7955 1.59028e-015 -3.18055e-015 -1.59028e-014 -1.7069 20.075 5.0056 26.2832 13.7152 17.5926 -13.6458 -0.047 -4.849 -22.5367 7.9328 41.105 -28.3255 -0.9759 2.2888 -7.71076 -3.81338 28.5858 -22.1583 -0.53 10.8316 -47.2935 -18.1894 -1.18532 -0.786 0.112 2.5817 3.6547e-007 2.07533e-007 -7.47932e-008 -0.3601 -0.878 4.2331 -1.82735e-007 -1.03766e-007 3.73966e-008 -1.8127 -1.216 2.2227 1.82735e-007 1.03766e-007 -3.73966e-008 -0.9571 1.114 1.7695 -0 -1.59028e-015 -0 -4.1246 0.487 4.1451 3.6547e-007 2.07533e-007 -7.47931e-008 -3.4052 -1.454 2.7682 -1.82735e-007 -1.03766e-007 3.73966e-008 -1.4531 -1.795 1.2713 1.82735e-007 1.03766e-007 -3.73966e-008 -5.6954 0.21 2.1184 3.6547e-007 2.07533e-007 -7.47931e-008 -3.9766 -1.54 2.3863 -1.82735e-007 -1.03766e-007 3.73966e-008 -1.4042 -1.926 1.125 1.82735e-007 1.03766e-007 -3.73966e-008 -2.0956 0.66 -0.3894 -0 -1.59028e-015 -0 -5.0395 -0.09 2.4971 3.6547e-007 2.07533e-007 -7.47931e-008 -3.7921 -1.552 1.4806 -1.82735e-007 -1.03766e-007 3.73966e-008 -1.4655 -1.808 0.9609 1.82735e-007 1.03766e-007 -3.73966e-008 -4.9141 -1.269 0.3592 3.6547e-007 2.07533e-007 -7.47931e-008 -3.1477 -1.685 0.8462 -1.82735e-007 -1.03766e-007 3.73966e-008 -0.8055 -1.585 0.7955 1.82735e-007 1.03766e-007 -3.73966e-008 8.367 -8.2066 0.5982 60.8244 -39.1434 97.3767 2.1923 -43.463 -0.4932 145.004 15.8815 179.577 0.7333 -45.8593 -2.6451 22.8433 52.7184 -18.8461 -8.367 -8.2066 0.5982 -60.8757 -39.2123 -97.3982 -2.1923 -43.463 -0.4931 -144.695 15.9844 -179.553 -0.7333 -45.8593 -2.6451 -22.3752 52.8512 18.7392 
